<svg xmlns="http://www.w3.org/2000/svg" width="1200" height="675" viewBox="0 0 1200 675" role="img" aria-label="Farm Recommendation System thumbnail">
  <defs>
    <linearGradient id="bg" x1="0" y1="0" x2="1" y2="1">
      <stop offset="0%" stop-color="#0b1220"/>
      <stop offset="55%" stop-color="#0f1b33"/>
      <stop offset="100%" stop-color="#06101f"/>
    </linearGradient>
    <radialGradient id="g1" cx="30%" cy="18%" r="75%">
      <stop offset="0%" stop-color="#22c55e" stop-opacity="0.25"/>
      <stop offset="60%" stop-color="#22c55e" stop-opacity="0"/>
    </radialGradient>
    <radialGradient id="g2" cx="82%" cy="26%" r="75%">
      <stop offset="0%" stop-color="#06b6d4" stop-opacity="0.18"/>
      <stop offset="60%" stop-color="#06b6d4" stop-opacity="0"/>
    </radialGradient>
  </defs>

  <rect width="1200" height="675" fill="url(#bg)"/>
  <rect width="1200" height="675" fill="url(#g1)"/>
  <rect width="1200" height="675" fill="url(#g2)"/>

  <g opacity="0.9">
    <rect x="86" y="86" width="1028" height="503" rx="36" fill="rgba(255,255,255,0.06)" stroke="rgba(255,255,255,0.10)"/>
    <rect x="140" y="164" width="520" height="62" rx="20" fill="rgba(34,197,94,0.16)" stroke="rgba(34,197,94,0.30)"/>

    <g transform="translate(160 248)">
      <rect x="0" y="0" width="620" height="318" rx="28" fill="rgba(255,255,255,0.06)" stroke="rgba(255,255,255,0.10)"/>
      <path d="M54 88 C120 54, 210 56, 270 90 C330 124, 420 126, 494 92" fill="none" stroke="rgba(34,197,94,0.75)" stroke-width="12" stroke-linecap="round"/>
      <path d="M54 150 C130 110, 220 114, 290 156 C360 198, 440 202, 494 176" fill="none" stroke="rgba(6,182,212,0.55)" stroke-width="12" stroke-linecap="round"/>
      <rect x="54" y="226" width="220" height="50" rx="18" fill="rgba(249,115,22,0.14)" stroke="rgba(249,115,22,0.26)"/>
      <circle cx="514" cy="238" r="22" fill="rgba(34,197,94,0.55)"/>
    </g>

    <g transform="translate(820 248)">
      <rect x="0" y="0" width="290" height="318" rx="28" fill="rgba(255,255,255,0.06)" stroke="rgba(255,255,255,0.10)"/>
      <rect x="40" y="54" width="210" height="56" rx="18" fill="rgba(255,255,255,0.06)" stroke="rgba(255,255,255,0.10)"/>
      <rect x="40" y="128" width="210" height="56" rx="18" fill="rgba(255,255,255,0.06)" stroke="rgba(255,255,255,0.10)"/>
      <rect x="40" y="202" width="160" height="52" rx="18" fill="rgba(34,197,94,0.14)" stroke="rgba(34,197,94,0.26)"/>
    </g>
  </g>

  <g font-family="ui-sans-serif, system-ui, -apple-system, Segoe UI, Roboto, Helvetica, Arial" fill="#e5e7eb">
    <text x="140" y="120" font-size="42" font-weight="900" letter-spacing="-0.5">Farm Recommendation</text>
    <text x="140" y="188" font-size="22" font-weight="700" dominant-baseline="middle" opacity="0.9">Agriculture Insights</text>
    <text x="140" y="520" font-size="18" font-weight="600" opacity="0.75">Recommendations • Data • Forecast</text>
  </g>
</svg>
