<svg xmlns="http://www.w3.org/2000/svg" width="1200" height="675" viewBox="0 0 1200 675" role="img" aria-label="System Services &amp; Informations for Imigrasi Bogor thumbnail">
  <defs>
    <linearGradient id="bg" x1="0" y1="0" x2="1" y2="1">
      <stop offset="0%" stop-color="#0b1220"/>
      <stop offset="55%" stop-color="#0f1b33"/>
      <stop offset="100%" stop-color="#06101f"/>
    </linearGradient>
    <radialGradient id="g1" cx="28%" cy="18%" r="70%">
      <stop offset="0%" stop-color="#ef4444" stop-opacity="0.28"/>
      <stop offset="60%" stop-color="#ef4444" stop-opacity="0"/>
    </radialGradient>
    <radialGradient id="g2" cx="82%" cy="26%" r="70%">
      <stop offset="0%" stop-color="#f97316" stop-opacity="0.28"/>
      <stop offset="60%" stop-color="#f97316" stop-opacity="0"/>
    </radialGradient>
  </defs>

  <rect width="1200" height="675" fill="url(#bg)"/>
  <rect width="1200" height="675" fill="url(#g1)"/>
  <rect width="1200" height="675" fill="url(#g2)"/>

  <g opacity="0.9">
    <rect x="86" y="86" width="1028" height="503" rx="36" fill="rgba(255,255,255,0.06)" stroke="rgba(255,255,255,0.10)"/>
    <rect x="140" y="164" width="520" height="62" rx="20" fill="rgba(239,68,68,0.16)" stroke="rgba(239,68,68,0.28)"/>

    <g transform="translate(160 260)">
      <rect x="0" y="0" width="720" height="56" rx="18" fill="rgba(255,255,255,0.06)" stroke="rgba(255,255,255,0.10)"/>
      <rect x="0" y="74" width="720" height="56" rx="18" fill="rgba(255,255,255,0.06)" stroke="rgba(255,255,255,0.10)"/>
      <rect x="0" y="148" width="720" height="56" rx="18" fill="rgba(255,255,255,0.06)" stroke="rgba(255,255,255,0.10)"/>
      <rect x="0" y="222" width="420" height="56" rx="18" fill="rgba(249,115,22,0.16)" stroke="rgba(249,115,22,0.28)"/>
    </g>

    <g transform="translate(920 222)">
      <rect x="0" y="0" width="160" height="320" rx="28" fill="rgba(255,255,255,0.06)" stroke="rgba(255,255,255,0.10)"/>
      <path d="M80 70 C55 100, 55 135, 80 165 C105 135, 105 100, 80 70 Z" fill="rgba(249,115,22,0.55)"/>
      <circle cx="80" cy="250" r="28" fill="rgba(239,68,68,0.55)"/>
    </g>
  </g>

  <g font-family="ui-sans-serif, system-ui, -apple-system, Segoe UI, Roboto, Helvetica, Arial" fill="#e5e7eb">
    <text x="140" y="120" font-size="42" font-weight="900" letter-spacing="-0.5">Imigrasi Bogor</text>
    <text x="140" y="188" font-size="22" font-weight="700" dominant-baseline="middle" opacity="0.9">Services &amp; Information System</text>
    <text x="140" y="520" font-size="18" font-weight="600" opacity="0.75">Public Info • Services • Updates</text>
  </g>
</svg>
