<svg xmlns="http://www.w3.org/2000/svg" width="1200" height="675" viewBox="0 0 1200 675" role="img" aria-label="System Admin for Product &amp; Digital Marketing thumbnail">
  <defs>
    <linearGradient id="bg" x1="0" y1="0" x2="1" y2="1">
      <stop offset="0%" stop-color="#0b1220"/>
      <stop offset="55%" stop-color="#111b33"/>
      <stop offset="100%" stop-color="#06101f"/>
    </linearGradient>
    <radialGradient id="glow" cx="32%" cy="18%" r="75%">
      <stop offset="0%" stop-color="#f97316" stop-opacity="0.35"/>
      <stop offset="60%" stop-color="#f97316" stop-opacity="0"/>
    </radialGradient>
    <radialGradient id="glow2" cx="82%" cy="22%" r="75%">
      <stop offset="0%" stop-color="#ef4444" stop-opacity="0.28"/>
      <stop offset="60%" stop-color="#ef4444" stop-opacity="0"/>
    </radialGradient>
  </defs>

  <rect width="1200" height="675" fill="url(#bg)"/>
  <rect width="1200" height="675" fill="url(#glow)"/>
  <rect width="1200" height="675" fill="url(#glow2)"/>

  <g opacity="0.9">
    <rect x="86" y="86" width="1028" height="503" rx="36" fill="rgba(255,255,255,0.06)" stroke="rgba(255,255,255,0.10)"/>
    <rect x="140" y="164" width="520" height="62" rx="20" fill="rgba(239,68,68,0.16)" stroke="rgba(239,68,68,0.28)"/>
    <rect x="140" y="252" width="620" height="46" rx="16" fill="rgba(255,255,255,0.06)" stroke="rgba(255,255,255,0.10)"/>
    <rect x="140" y="312" width="620" height="46" rx="16" fill="rgba(255,255,255,0.06)" stroke="rgba(255,255,255,0.10)"/>
    <rect x="140" y="372" width="620" height="46" rx="16" fill="rgba(255,255,255,0.06)" stroke="rgba(255,255,255,0.10)"/>

    <g transform="translate(820 210)">
      <rect x="0" y="0" width="250" height="300" rx="28" fill="rgba(255,255,255,0.06)" stroke="rgba(255,255,255,0.10)"/>
      <rect x="26" y="26" width="198" height="60" rx="18" fill="rgba(239,68,68,0.14)" stroke="rgba(239,68,68,0.26)"/>
      <rect x="26" y="104" width="198" height="46" rx="14" fill="rgba(255,255,255,0.06)" stroke="rgba(255,255,255,0.10)"/>
      <rect x="26" y="162" width="198" height="46" rx="14" fill="rgba(255,255,255,0.06)" stroke="rgba(255,255,255,0.10)"/>
      <rect x="26" y="220" width="120" height="44" rx="14" fill="rgba(249,115,22,0.18)" stroke="rgba(249,115,22,0.30)"/>
    </g>
  </g>

  <g font-family="ui-sans-serif, system-ui, -apple-system, Segoe UI, Roboto, Helvetica, Arial" fill="#e5e7eb">
    <text x="140" y="120" font-size="42" font-weight="900" letter-spacing="-0.5">System Admin</text>
    <text x="140" y="188" font-size="22" font-weight="700" dominant-baseline="middle" opacity="0.9">Product &amp; Digital Marketing</text>
    <text x="140" y="520" font-size="18" font-weight="600" opacity="0.75">Catalog • Campaign • Content</text>
  </g>
</svg>
