<svg xmlns="http://www.w3.org/2000/svg" width="1200" height="675" viewBox="0 0 1200 675" role="img" aria-label="ERP DFEO Indico Telkomsel thumbnail">
  <defs>
    <linearGradient id="bg" x1="0" y1="0" x2="1" y2="1">
      <stop offset="0%" stop-color="#0b1220"/>
      <stop offset="55%" stop-color="#0f1b33"/>
      <stop offset="100%" stop-color="#06101f"/>
    </linearGradient>
    <radialGradient id="g1" cx="30%" cy="18%" r="75%">
      <stop offset="0%" stop-color="#38bdf8" stop-opacity="0.22"/>
      <stop offset="60%" stop-color="#38bdf8" stop-opacity="0"/>
    </radialGradient>
    <radialGradient id="g2" cx="82%" cy="26%" r="75%">
      <stop offset="0%" stop-color="#06b6d4" stop-opacity="0.18"/>
      <stop offset="60%" stop-color="#06b6d4" stop-opacity="0"/>
    </radialGradient>
  </defs>

  <rect width="1200" height="675" fill="url(#bg)"/>
  <rect width="1200" height="675" fill="url(#g1)"/>
  <rect width="1200" height="675" fill="url(#g2)"/>

  <g opacity="0.9">
    <rect x="86" y="86" width="1028" height="503" rx="36" fill="rgba(255,255,255,0.06)" stroke="rgba(255,255,255,0.10)"/>
    <rect x="140" y="164" width="520" height="62" rx="20" fill="rgba(56,189,248,0.16)" stroke="rgba(56,189,248,0.30)"/>

    <g transform="translate(160 252)">
      <rect x="0" y="0" width="720" height="310" rx="28" fill="rgba(255,255,255,0.06)" stroke="rgba(255,255,255,0.10)"/>
      <path d="M52 72 h580" stroke="rgba(229,231,235,0.22)" stroke-width="10" stroke-linecap="round"/>
      <rect x="52" y="104" width="260" height="180" rx="24" fill="rgba(56,189,248,0.12)" stroke="rgba(56,189,248,0.22)"/>
      <rect x="336" y="104" width="296" height="54" rx="18" fill="rgba(255,255,255,0.06)" stroke="rgba(255,255,255,0.10)"/>
      <rect x="336" y="176" width="296" height="54" rx="18" fill="rgba(255,255,255,0.06)" stroke="rgba(255,255,255,0.10)"/>
      <rect x="336" y="248" width="196" height="52" rx="18" fill="rgba(249,115,22,0.14)" stroke="rgba(249,115,22,0.26)"/>
    </g>

    <g transform="translate(920 252)">
      <rect x="0" y="0" width="190" height="310" rx="28" fill="rgba(255,255,255,0.06)" stroke="rgba(255,255,255,0.10)"/>
      <circle cx="95" cy="118" r="46" fill="rgba(6,182,212,0.16)" stroke="rgba(6,182,212,0.28)"/>
      <path d="M95 92 v52" stroke="rgba(229,231,235,0.55)" stroke-width="12" stroke-linecap="round"/>
      <path d="M95 118 h52" stroke="rgba(229,231,235,0.55)" stroke-width="12" stroke-linecap="round"/>
      <rect x="36" y="220" width="118" height="44" rx="14" fill="rgba(56,189,248,0.14)" stroke="rgba(56,189,248,0.24)"/>
    </g>
  </g>

  <g font-family="ui-sans-serif, system-ui, -apple-system, Segoe UI, Roboto, Helvetica, Arial" fill="#e5e7eb">
    <text x="140" y="120" font-size="42" font-weight="900" letter-spacing="-0.5">ERP DFEO</text>
    <text x="140" y="188" font-size="22" font-weight="700" dominant-baseline="middle" opacity="0.9">INDICO Telkomsel</text>
    <text x="140" y="520" font-size="18" font-weight="600" opacity="0.75">Workflow • Data • Integrations</text>
  </g>
</svg>
