<svg xmlns="http://www.w3.org/2000/svg" width="1200" height="675" viewBox="0 0 1200 675" role="img" aria-label="Budget Cotroller thumbnail">
  <defs>
    <linearGradient id="bg" x1="0" y1="0" x2="1" y2="1">
      <stop offset="0%" stop-color="#0b1220"/>
      <stop offset="55%" stop-color="#0f1b33"/>
      <stop offset="100%" stop-color="#06101f"/>
    </linearGradient>
    <radialGradient id="g1" cx="30%" cy="18%" r="75%">
      <stop offset="0%" stop-color="#f97316" stop-opacity="0.26"/>
      <stop offset="60%" stop-color="#f97316" stop-opacity="0"/>
    </radialGradient>
    <radialGradient id="g2" cx="82%" cy="26%" r="75%">
      <stop offset="0%" stop-color="#6366f1" stop-opacity="0.18"/>
      <stop offset="60%" stop-color="#6366f1" stop-opacity="0"/>
    </radialGradient>
  </defs>

  <rect width="1200" height="675" fill="url(#bg)"/>
  <rect width="1200" height="675" fill="url(#g1)"/>
  <rect width="1200" height="675" fill="url(#g2)"/>

  <g opacity="0.9">
    <rect x="86" y="86" width="1028" height="503" rx="36" fill="rgba(255,255,255,0.06)" stroke="rgba(255,255,255,0.10)"/>
    <rect x="140" y="164" width="460" height="62" rx="20" fill="rgba(249,115,22,0.16)" stroke="rgba(249,115,22,0.30)"/>

    <g transform="translate(160 252)">
      <rect x="0" y="0" width="660" height="310" rx="28" fill="rgba(255,255,255,0.06)" stroke="rgba(255,255,255,0.10)"/>
      <rect x="52" y="62" width="556" height="56" rx="18" fill="rgba(249,115,22,0.12)" stroke="rgba(249,115,22,0.22)"/>
      <rect x="52" y="138" width="556" height="56" rx="18" fill="rgba(255,255,255,0.06)" stroke="rgba(255,255,255,0.10)"/>
      <rect x="52" y="214" width="340" height="52" rx="18" fill="rgba(99,102,241,0.14)" stroke="rgba(99,102,241,0.24)"/>
    </g>

    <g transform="translate(860 252)">
      <rect x="0" y="0" width="250" height="310" rx="28" fill="rgba(255,255,255,0.06)" stroke="rgba(255,255,255,0.10)"/>
      <path d="M60 226 C92 166, 120 186, 150 150 C184 110, 214 132, 222 98" fill="none" stroke="rgba(249,115,22,0.80)" stroke-width="10" stroke-linecap="round"/>
      <circle cx="60" cy="226" r="9" fill="#f97316"/>
      <circle cx="150" cy="150" r="9" fill="#f97316"/>
      <circle cx="222" cy="98" r="9" fill="#f97316"/>
    </g>
  </g>

  <g font-family="ui-sans-serif, system-ui, -apple-system, Segoe UI, Roboto, Helvetica, Arial" fill="#e5e7eb">
    <text x="140" y="120" font-size="42" font-weight="900" letter-spacing="-0.5">Budget Controller</text>
    <text x="140" y="188" font-size="22" font-weight="700" dominant-baseline="middle" opacity="0.9">Tracking &amp; Controls</text>
    <text x="140" y="520" font-size="18" font-weight="600" opacity="0.75">Plan • Monitor • Report</text>
  </g>
</svg>
