<svg xmlns="http://www.w3.org/2000/svg" width="1200" height="675" viewBox="0 0 1200 675" role="img" aria-label="E-Meterai Digital System thumbnail">
  <defs>
    <linearGradient id="bg" x1="0" y1="0" x2="1" y2="1">
      <stop offset="0%" stop-color="#0b1220"/>
      <stop offset="55%" stop-color="#0f1b33"/>
      <stop offset="100%" stop-color="#06101f"/>
    </linearGradient>
    <radialGradient id="g1" cx="30%" cy="18%" r="70%">
      <stop offset="0%" stop-color="#ef4444" stop-opacity="0.25"/>
      <stop offset="60%" stop-color="#ef4444" stop-opacity="0"/>
    </radialGradient>
    <radialGradient id="g2" cx="82%" cy="26%" r="70%">
      <stop offset="0%" stop-color="#06b6d4" stop-opacity="0.22"/>
      <stop offset="60%" stop-color="#06b6d4" stop-opacity="0"/>
    </radialGradient>
  </defs>

  <rect width="1200" height="675" fill="url(#bg)"/>
  <rect width="1200" height="675" fill="url(#g1)"/>
  <rect width="1200" height="675" fill="url(#g2)"/>

  <g opacity="0.9">
    <rect x="86" y="86" width="1028" height="503" rx="36" fill="rgba(255,255,255,0.06)" stroke="rgba(255,255,255,0.10)"/>
    <rect x="140" y="164" width="420" height="62" rx="20" fill="rgba(6,182,212,0.16)" stroke="rgba(6,182,212,0.28)"/>

    <g transform="translate(160 268)">
      <rect x="0" y="0" width="520" height="280" rx="28" fill="rgba(255,255,255,0.06)" stroke="rgba(255,255,255,0.10)"/>
      <path d="M70 90 h300" stroke="rgba(229,231,235,0.55)" stroke-width="10" stroke-linecap="round"/>
      <path d="M70 140 h260" stroke="rgba(229,231,235,0.45)" stroke-width="10" stroke-linecap="round"/>
      <path d="M70 190 h220" stroke="rgba(229,231,235,0.40)" stroke-width="10" stroke-linecap="round"/>
      <rect x="70" y="220" width="190" height="44" rx="14" fill="rgba(239,68,68,0.18)" stroke="rgba(239,68,68,0.28)"/>
      <circle cx="430" cy="146" r="56" fill="rgba(6,182,212,0.22)" stroke="rgba(6,182,212,0.34)"/>
      <path d="M404 146 a26 26 0 1 0 52 0 a26 26 0 1 0 -52 0" fill="none" stroke="rgba(229,231,235,0.60)" stroke-width="10"/>
    </g>

    <g transform="translate(760 250)">
      <rect x="0" y="0" width="330" height="310" rx="28" fill="rgba(255,255,255,0.06)" stroke="rgba(255,255,255,0.10)"/>
      <path d="M80 110 h170" stroke="rgba(6,182,212,0.85)" stroke-width="12" stroke-linecap="round"/>
      <path d="M80 160 h140" stroke="rgba(6,182,212,0.65)" stroke-width="12" stroke-linecap="round"/>
      <path d="M80 210 h120" stroke="rgba(6,182,212,0.45)" stroke-width="12" stroke-linecap="round"/>
      <circle cx="250" cy="86" r="18" fill="rgba(239,68,68,0.75)"/>
    </g>
  </g>

  <g font-family="ui-sans-serif, system-ui, -apple-system, Segoe UI, Roboto, Helvetica, Arial" fill="#e5e7eb">
    <text x="140" y="120" font-size="42" font-weight="900" letter-spacing="-0.5">E-Meterai</text>
    <text x="140" y="188" font-size="22" font-weight="700" dominant-baseline="middle" opacity="0.9">Digital Stamp Integration</text>
    <text x="140" y="520" font-size="18" font-weight="600" opacity="0.75">Signing • Validation • Audit Trail</text>
  </g>
</svg>
