<svg xmlns="http://www.w3.org/2000/svg" width="1200" height="675" viewBox="0 0 1200 675" role="img" aria-label="ERP Sinar Sukses Mandiri thumbnail">
  <defs>
    <linearGradient id="bg" x1="0" y1="0" x2="1" y2="1">
      <stop offset="0%" stop-color="#0b1220"/>
      <stop offset="55%" stop-color="#0f1b33"/>
      <stop offset="100%" stop-color="#06101f"/>
    </linearGradient>
    <radialGradient id="g1" cx="30%" cy="18%" r="75%">
      <stop offset="0%" stop-color="#22c55e" stop-opacity="0.22"/>
      <stop offset="60%" stop-color="#22c55e" stop-opacity="0"/>
    </radialGradient>
    <radialGradient id="g2" cx="82%" cy="26%" r="75%">
      <stop offset="0%" stop-color="#f97316" stop-opacity="0.18"/>
      <stop offset="60%" stop-color="#f97316" stop-opacity="0"/>
    </radialGradient>
  </defs>

  <rect width="1200" height="675" fill="url(#bg)"/>
  <rect width="1200" height="675" fill="url(#g1)"/>
  <rect width="1200" height="675" fill="url(#g2)"/>

  <g opacity="0.9">
    <rect x="86" y="86" width="1028" height="503" rx="36" fill="rgba(255,255,255,0.06)" stroke="rgba(255,255,255,0.10)"/>
    <rect x="140" y="164" width="460" height="62" rx="20" fill="rgba(34,197,94,0.16)" stroke="rgba(34,197,94,0.30)"/>

    <g transform="translate(160 252)">
      <rect x="0" y="0" width="930" height="310" rx="28" fill="rgba(255,255,255,0.06)" stroke="rgba(255,255,255,0.10)"/>
      <rect x="40" y="46" width="560" height="54" rx="18" fill="rgba(255,255,255,0.06)" stroke="rgba(255,255,255,0.10)"/>
      <rect x="40" y="116" width="560" height="54" rx="18" fill="rgba(255,255,255,0.06)" stroke="rgba(255,255,255,0.10)"/>
      <rect x="40" y="186" width="340" height="52" rx="18" fill="rgba(34,197,94,0.14)" stroke="rgba(34,197,94,0.26)"/>

      <g transform="translate(680 52)">
        <rect x="0" y="0" width="210" height="82" rx="22" fill="rgba(34,197,94,0.16)" stroke="rgba(34,197,94,0.28)"/>
        <rect x="0" y="102" width="210" height="82" rx="22" fill="rgba(255,255,255,0.06)" stroke="rgba(255,255,255,0.10)"/>
        <rect x="0" y="204" width="210" height="82" rx="22" fill="rgba(249,115,22,0.14)" stroke="rgba(249,115,22,0.26)"/>
      </g>
    </g>
  </g>

  <g font-family="ui-sans-serif, system-ui, -apple-system, Segoe UI, Roboto, Helvetica, Arial" fill="#e5e7eb">
    <text x="140" y="120" font-size="42" font-weight="900" letter-spacing="-0.5">ERP Sinar Sukses</text>
    <text x="140" y="188" font-size="22" font-weight="700" dominant-baseline="middle" opacity="0.9">Inventory &amp; Operations</text>
    <text x="140" y="520" font-size="18" font-weight="600" opacity="0.75">Stock • Orders • Reporting</text>
  </g>
</svg>
