<svg xmlns="http://www.w3.org/2000/svg" width="1200" height="675" viewBox="0 0 1200 675" role="img" aria-label="Quotation Payment thumbnail">
  <defs>
    <linearGradient id="bg" x1="0" y1="0" x2="1" y2="1">
      <stop offset="0%" stop-color="#0b1220"/>
      <stop offset="55%" stop-color="#0f1b33"/>
      <stop offset="100%" stop-color="#06101f"/>
    </linearGradient>
    <radialGradient id="g1" cx="30%" cy="18%" r="75%">
      <stop offset="0%" stop-color="#6366f1" stop-opacity="0.20"/>
      <stop offset="60%" stop-color="#6366f1" stop-opacity="0"/>
    </radialGradient>
    <radialGradient id="g2" cx="82%" cy="26%" r="75%">
      <stop offset="0%" stop-color="#f97316" stop-opacity="0.20"/>
      <stop offset="60%" stop-color="#f97316" stop-opacity="0"/>
    </radialGradient>
  </defs>

  <rect width="1200" height="675" fill="url(#bg)"/>
  <rect width="1200" height="675" fill="url(#g1)"/>
  <rect width="1200" height="675" fill="url(#g2)"/>

  <g opacity="0.9">
    <rect x="86" y="86" width="1028" height="503" rx="36" fill="rgba(255,255,255,0.06)" stroke="rgba(255,255,255,0.10)"/>
    <rect x="140" y="164" width="520" height="62" rx="20" fill="rgba(99,102,241,0.16)" stroke="rgba(99,102,241,0.30)"/>

    <g transform="translate(160 248)">
      <rect x="0" y="0" width="620" height="318" rx="28" fill="rgba(255,255,255,0.06)" stroke="rgba(255,255,255,0.10)"/>
      <path d="M60 74 h500" stroke="rgba(229,231,235,0.25)" stroke-width="10" stroke-linecap="round"/>
      <rect x="60" y="112" width="500" height="54" rx="18" fill="rgba(255,255,255,0.06)" stroke="rgba(255,255,255,0.10)"/>
      <rect x="60" y="184" width="500" height="54" rx="18" fill="rgba(255,255,255,0.06)" stroke="rgba(255,255,255,0.10)"/>
      <rect x="60" y="256" width="240" height="50" rx="18" fill="rgba(249,115,22,0.14)" stroke="rgba(249,115,22,0.26)"/>
    </g>

    <g transform="translate(840 248)">
      <rect x="0" y="0" width="270" height="318" rx="28" fill="rgba(255,255,255,0.06)" stroke="rgba(255,255,255,0.10)"/>
      <circle cx="135" cy="140" r="64" fill="rgba(99,102,241,0.16)" stroke="rgba(99,102,241,0.28)"/>
      <path d="M135 104 v72" stroke="rgba(229,231,235,0.55)" stroke-width="12" stroke-linecap="round"/>
      <path d="M108 140 h54" stroke="rgba(229,231,235,0.55)" stroke-width="12" stroke-linecap="round"/>
      <rect x="70" y="244" width="130" height="44" rx="14" fill="rgba(249,115,22,0.16)" stroke="rgba(249,115,22,0.28)"/>
    </g>
  </g>

  <g font-family="ui-sans-serif, system-ui, -apple-system, Segoe UI, Roboto, Helvetica, Arial" fill="#e5e7eb">
    <text x="140" y="120" font-size="42" font-weight="900" letter-spacing="-0.5">Quotation Payment</text>
    <text x="140" y="188" font-size="22" font-weight="700" dominant-baseline="middle" opacity="0.9">Invoices &amp; History</text>
    <text x="140" y="520" font-size="18" font-weight="600" opacity="0.75">Quotes • Payments • Records</text>
  </g>
</svg>
