<svg xmlns="http://www.w3.org/2000/svg" width="1200" height="675" viewBox="0 0 1200 675" role="img" aria-label="Budget Family thumbnail">
  <defs>
    <linearGradient id="bg" x1="0" y1="0" x2="1" y2="1">
      <stop offset="0%" stop-color="#0b1220"/>
      <stop offset="55%" stop-color="#0f1b33"/>
      <stop offset="100%" stop-color="#06101f"/>
    </linearGradient>
    <radialGradient id="glow" cx="30%" cy="18%" r="70%">
      <stop offset="0%" stop-color="#10b981" stop-opacity="0.45"/>
      <stop offset="60%" stop-color="#10b981" stop-opacity="0"/>
    </radialGradient>
    <radialGradient id="glow2" cx="80%" cy="22%" r="70%">
      <stop offset="0%" stop-color="#f97316" stop-opacity="0.35"/>
      <stop offset="60%" stop-color="#f97316" stop-opacity="0"/>
    </radialGradient>
  </defs>

  <rect width="1200" height="675" fill="url(#bg)"/>
  <rect width="1200" height="675" fill="url(#glow)"/>
  <rect width="1200" height="675" fill="url(#glow2)"/>

  <g opacity="0.85">
    <rect x="86" y="86" width="1028" height="503" rx="36" fill="rgba(255,255,255,0.06)" stroke="rgba(255,255,255,0.10)"/>
    <rect x="140" y="150" width="420" height="58" rx="18" fill="rgba(16,185,129,0.18)" stroke="rgba(16,185,129,0.28)"/>
    <rect x="140" y="238" width="520" height="48" rx="16" fill="rgba(255,255,255,0.06)" stroke="rgba(255,255,255,0.10)"/>
    <rect x="140" y="304" width="520" height="48" rx="16" fill="rgba(255,255,255,0.06)" stroke="rgba(255,255,255,0.10)"/>
    <rect x="140" y="370" width="520" height="48" rx="16" fill="rgba(255,255,255,0.06)" stroke="rgba(255,255,255,0.10)"/>

    <g transform="translate(740 200)">
      <rect x="0" y="0" width="310" height="250" rx="28" fill="rgba(255,255,255,0.06)" stroke="rgba(255,255,255,0.10)"/>
      <path d="M40 190 C90 130, 120 160, 165 120 C210 80, 250 115, 270 85" fill="none" stroke="rgba(16,185,129,0.85)" stroke-width="10" stroke-linecap="round"/>
      <circle cx="40" cy="190" r="9" fill="#10b981"/>
      <circle cx="165" cy="120" r="9" fill="#10b981"/>
      <circle cx="270" cy="85" r="9" fill="#10b981"/>
    </g>
  </g>

  <g font-family="ui-sans-serif, system-ui, -apple-system, Segoe UI, Roboto, Helvetica, Arial" fill="#e5e7eb">
    <text x="140" y="150" font-size="22" font-weight="700" dominant-baseline="middle" opacity="0.9">Budgeting App</text>
    <text x="140" y="112" font-size="44" font-weight="900" letter-spacing="-0.5">Budget Family</text>
    <text x="140" y="520" font-size="18" font-weight="600" opacity="0.75">Income • Expense • Balance</text>
  </g>
</svg>
