<svg xmlns="http://www.w3.org/2000/svg" width="1200" height="675" viewBox="0 0 1200 675" role="img" aria-label="ERP Beeloft thumbnail">
  <defs>
    <linearGradient id="bg" x1="0" y1="0" x2="1" y2="1">
      <stop offset="0%" stop-color="#0b1220"/>
      <stop offset="55%" stop-color="#10143a"/>
      <stop offset="100%" stop-color="#06101f"/>
    </linearGradient>
    <radialGradient id="g1" cx="30%" cy="18%" r="75%">
      <stop offset="0%" stop-color="#8b5cf6" stop-opacity="0.26"/>
      <stop offset="60%" stop-color="#8b5cf6" stop-opacity="0"/>
    </radialGradient>
    <radialGradient id="g2" cx="82%" cy="26%" r="75%">
      <stop offset="0%" stop-color="#06b6d4" stop-opacity="0.18"/>
      <stop offset="60%" stop-color="#06b6d4" stop-opacity="0"/>
    </radialGradient>
  </defs>

  <rect width="1200" height="675" fill="url(#bg)"/>
  <rect width="1200" height="675" fill="url(#g1)"/>
  <rect width="1200" height="675" fill="url(#g2)"/>

  <g opacity="0.9">
    <rect x="86" y="86" width="1028" height="503" rx="36" fill="rgba(255,255,255,0.06)" stroke="rgba(255,255,255,0.10)"/>
    <rect x="140" y="164" width="420" height="62" rx="20" fill="rgba(139,92,246,0.16)" stroke="rgba(139,92,246,0.30)"/>

    <g transform="translate(160 252)">
      <rect x="0" y="0" width="420" height="310" rx="28" fill="rgba(255,255,255,0.06)" stroke="rgba(255,255,255,0.10)"/>
      <rect x="36" y="44" width="348" height="54" rx="18" fill="rgba(255,255,255,0.06)" stroke="rgba(255,255,255,0.10)"/>
      <rect x="36" y="116" width="348" height="54" rx="18" fill="rgba(255,255,255,0.06)" stroke="rgba(255,255,255,0.10)"/>
      <rect x="36" y="188" width="210" height="50" rx="18" fill="rgba(6,182,212,0.16)" stroke="rgba(6,182,212,0.28)"/>
      <rect x="262" y="188" width="122" height="50" rx="18" fill="rgba(249,115,22,0.14)" stroke="rgba(249,115,22,0.26)"/>
    </g>

    <g transform="translate(620 252)">
      <rect x="0" y="0" width="470" height="310" rx="28" fill="rgba(255,255,255,0.06)" stroke="rgba(255,255,255,0.10)"/>
      <g transform="translate(44 64)">
        <rect x="0" y="150" width="60" height="92" rx="14" fill="rgba(6,182,212,0.20)"/>
        <rect x="86" y="116" width="60" height="126" rx="14" fill="rgba(6,182,212,0.28)"/>
        <rect x="172" y="70" width="60" height="172" rx="14" fill="rgba(6,182,212,0.42)"/>
        <rect x="258" y="104" width="60" height="138" rx="14" fill="rgba(6,182,212,0.24)"/>
        <rect x="344" y="50" width="60" height="192" rx="14" fill="rgba(6,182,212,0.48)"/>
      </g>
    </g>
  </g>

  <g font-family="ui-sans-serif, system-ui, -apple-system, Segoe UI, Roboto, Helvetica, Arial" fill="#e5e7eb">
    <text x="140" y="120" font-size="42" font-weight="900" letter-spacing="-0.5">ERP Beeloft</text>
    <text x="140" y="188" font-size="22" font-weight="700" dominant-baseline="middle" opacity="0.9">Operations Dashboard</text>
    <text x="140" y="520" font-size="18" font-weight="600" opacity="0.75">Modules • Reports • Insights</text>
  </g>
</svg>
