<svg xmlns="http://www.w3.org/2000/svg" width="1200" height="675" viewBox="0 0 1200 675" role="img" aria-label="Ramayana Dashboard thumbnail">
  <defs>
    <linearGradient id="bg" x1="0" y1="0" x2="1" y2="1">
      <stop offset="0%" stop-color="#0b1220"/>
      <stop offset="55%" stop-color="#10143a"/>
      <stop offset="100%" stop-color="#06101f"/>
    </linearGradient>
    <radialGradient id="g1" cx="30%" cy="18%" r="75%">
      <stop offset="0%" stop-color="#8b5cf6" stop-opacity="0.28"/>
      <stop offset="60%" stop-color="#8b5cf6" stop-opacity="0"/>
    </radialGradient>
    <radialGradient id="g2" cx="82%" cy="26%" r="75%">
      <stop offset="0%" stop-color="#06b6d4" stop-opacity="0.18"/>
      <stop offset="60%" stop-color="#06b6d4" stop-opacity="0"/>
    </radialGradient>
  </defs>

  <rect width="1200" height="675" fill="url(#bg)"/>
  <rect width="1200" height="675" fill="url(#g1)"/>
  <rect width="1200" height="675" fill="url(#g2)"/>

  <g opacity="0.9">
    <rect x="86" y="86" width="1028" height="503" rx="36" fill="rgba(255,255,255,0.06)" stroke="rgba(255,255,255,0.10)"/>
    <rect x="140" y="164" width="420" height="62" rx="20" fill="rgba(139,92,246,0.16)" stroke="rgba(139,92,246,0.30)"/>

    <g transform="translate(150 252)">
      <rect x="0" y="0" width="640" height="310" rx="28" fill="rgba(255,255,255,0.06)" stroke="rgba(255,255,255,0.10)"/>
      <g transform="translate(48 58)">
        <rect x="0" y="160" width="64" height="92" rx="14" fill="rgba(6,182,212,0.22)"/>
        <rect x="90" y="126" width="64" height="126" rx="14" fill="rgba(6,182,212,0.30)"/>
        <rect x="180" y="86" width="64" height="166" rx="14" fill="rgba(6,182,212,0.40)"/>
        <rect x="270" y="120" width="64" height="132" rx="14" fill="rgba(6,182,212,0.26)"/>
        <rect x="360" y="66" width="64" height="186" rx="14" fill="rgba(6,182,212,0.46)"/>
      </g>
      <path d="M48 54 h520" stroke="rgba(229,231,235,0.22)" stroke-width="10" stroke-linecap="round"/>
    </g>

    <g transform="translate(830 252)">
      <rect x="0" y="0" width="280" height="310" rx="28" fill="rgba(255,255,255,0.06)" stroke="rgba(255,255,255,0.10)"/>
      <circle cx="140" cy="128" r="70" fill="rgba(139,92,246,0.18)" stroke="rgba(139,92,246,0.30)"/>
      <path d="M140 128 L140 62" stroke="rgba(229,231,235,0.65)" stroke-width="12" stroke-linecap="round"/>
      <path d="M140 128 L196 160" stroke="rgba(229,231,235,0.55)" stroke-width="12" stroke-linecap="round"/>
      <rect x="62" y="220" width="156" height="44" rx="14" fill="rgba(249,115,22,0.16)" stroke="rgba(249,115,22,0.28)"/>
    </g>
  </g>

  <g font-family="ui-sans-serif, system-ui, -apple-system, Segoe UI, Roboto, Helvetica, Arial" fill="#e5e7eb">
    <text x="140" y="120" font-size="42" font-weight="900" letter-spacing="-0.5">Ramayana</text>
    <text x="140" y="188" font-size="22" font-weight="700" dominant-baseline="middle" opacity="0.9">Reporting Dashboard</text>
    <text x="140" y="520" font-size="18" font-weight="600" opacity="0.75">KPIs • Charts • Exports</text>
  </g>
</svg>
