<svg xmlns="http://www.w3.org/2000/svg" width="1200" height="675" viewBox="0 0 1200 675" role="img" aria-label="Din Store thumbnail">
  <defs>
    <linearGradient id="bg" x1="0" y1="0" x2="1" y2="1">
      <stop offset="0%" stop-color="#0b1220"/>
      <stop offset="55%" stop-color="#1a1640"/>
      <stop offset="100%" stop-color="#0a0f25"/>
    </linearGradient>
    <radialGradient id="glow" cx="30%" cy="18%" r="70%">
      <stop offset="0%" stop-color="#8b5cf6" stop-opacity="0.55"/>
      <stop offset="60%" stop-color="#8b5cf6" stop-opacity="0"/>
    </radialGradient>
    <radialGradient id="glow2" cx="80%" cy="22%" r="70%">
      <stop offset="0%" stop-color="#f97316" stop-opacity="0.30"/>
      <stop offset="60%" stop-color="#f97316" stop-opacity="0"/>
    </radialGradient>
  </defs>

  <rect width="1200" height="675" fill="url(#bg)"/>
  <rect width="1200" height="675" fill="url(#glow)"/>
  <rect width="1200" height="675" fill="url(#glow2)"/>

  <g opacity="0.9">
    <rect x="86" y="86" width="1028" height="503" rx="36" fill="rgba(255,255,255,0.06)" stroke="rgba(255,255,255,0.10)"/>

    <g transform="translate(150 170)">
      <rect x="0" y="0" width="520" height="70" rx="22" fill="rgba(139,92,246,0.18)" stroke="rgba(139,92,246,0.30)"/>
      <rect x="0" y="106" width="250" height="240" rx="26" fill="rgba(255,255,255,0.06)" stroke="rgba(255,255,255,0.10)"/>
      <rect x="270" y="106" width="250" height="240" rx="26" fill="rgba(255,255,255,0.06)" stroke="rgba(255,255,255,0.10)"/>
      <rect x="34" y="302" width="182" height="38" rx="14" fill="rgba(249,115,22,0.22)" stroke="rgba(249,115,22,0.30)"/>
      <rect x="304" y="302" width="182" height="38" rx="14" fill="rgba(249,115,22,0.22)" stroke="rgba(249,115,22,0.30)"/>
    </g>

    <g transform="translate(780 188)">
      <rect x="0" y="0" width="270" height="390" rx="34" fill="rgba(255,255,255,0.06)" stroke="rgba(255,255,255,0.10)"/>
      <path d="M78 138 h110 a18 18 0 0 1 18 18 v120 a22 22 0 0 1-22 22 h-92 a22 22 0 0 1-22-22 v-120 a18 18 0 0 1 18-18z" fill="rgba(139,92,246,0.18)" stroke="rgba(139,92,246,0.32)"/>
      <path d="M92 140 c0-36 12-56 41-56 s41 20 41 56" fill="none" stroke="rgba(229,231,235,0.70)" stroke-width="10" stroke-linecap="round"/>
      <circle cx="210" cy="94" r="16" fill="rgba(249,115,22,0.75)"/>
    </g>
  </g>

  <g font-family="ui-sans-serif, system-ui, -apple-system, Segoe UI, Roboto, Helvetica, Arial" fill="#e5e7eb">
    <text x="150" y="112" font-size="44" font-weight="900" letter-spacing="-0.5">Din Store</text>
    <text x="150" y="196" font-size="22" font-weight="700" dominant-baseline="middle" opacity="0.9">Mobile E-Commerce</text>
    <text x="150" y="520" font-size="18" font-weight="600" opacity="0.75">Catalog • Cart • Checkout</text>
  </g>
</svg>
